<svg xmlns="http://www.w3.org/2000/svg" width="60" height="60" viewBox="0 0 60 60"><path d="M30,0A30,30,0,1,0,60,30,30.009,30.009,0,0,0,30,0ZM49.816,13.829a25.507,25.507,0,0,1,5.792,15.944,60.5,60.5,0,0,0-17.831-.813c-.2-.423-.358-.879-.553-1.334-.521-1.236-1.106-2.505-1.692-3.709C44.967,20.076,49.262,14.544,49.816,13.829ZM30,4.425a25.567,25.567,0,0,1,16.985,6.443c-.456.651-4.328,5.824-13.438,9.241a138.338,138.338,0,0,0-9.566-15A26.059,26.059,0,0,1,30,4.425ZM19.1,6.833a161.7,161.7,0,0,1,9.5,14.8A96.1,96.1,0,0,1,4.913,24.761,25.744,25.744,0,0,1,19.1,6.833ZM4.36,30.033v-.781a93.627,93.627,0,0,0,26.323-3.644c.748,1.432,1.432,2.9,2.082,4.36-.325.1-.683.2-1.009.293-13.21,4.263-20.239,15.911-20.824,16.887A25.565,25.565,0,0,1,4.36,30.033ZM30,55.64a25.446,25.446,0,0,1-15.716-5.4c.456-.944,5.662-10.965,20.108-16.009.065-.033.1-.033.163-.065A105.926,105.926,0,0,1,40.022,53.59,25.2,25.2,0,0,1,30,55.64Zm14.284-4.393a110.247,110.247,0,0,0-4.978-18.254A37.421,37.421,0,0,1,55.249,34.1,25.4,25.4,0,0,1,44.284,51.247Z" fill="#98a0ad" fill-rule="evenodd"/></svg>