<svg xmlns="http://www.w3.org/2000/svg" width="60" height="60" viewBox="0 0 60 60"><path d="M30,0C13.435,0,0,13.772,0,30.758A30.706,30.706,0,0,0,20.517,59.946c1.5.285,1.983-.669,1.983-1.479V52.74c-8.345,1.861-10.082-3.629-10.082-3.629-1.365-3.555-3.332-4.5-3.332-4.5-2.723-1.91.207-1.869.207-1.869,3.013.215,4.6,3.171,4.6,3.171,2.675,4.7,7.018,3.342,8.73,2.556a6.588,6.588,0,0,1,1.9-4.111c-6.663-.782-13.667-3.419-13.667-15.2a12.073,12.073,0,0,1,3.09-8.256,11.323,11.323,0,0,1,.292-8.141s2.52-.825,8.253,3.153a27.759,27.759,0,0,1,15.023,0c5.728-3.978,8.243-3.153,8.243-3.153a11.312,11.312,0,0,1,.295,8.141,12.041,12.041,0,0,1,3.087,8.256c0,11.814-7.017,14.415-13.7,15.177,1.075.954,2.058,2.825,2.058,5.7v8.441c0,.818.48,1.779,2,1.476A30.708,30.708,0,0,0,60,30.758C60,13.772,46.568,0,30,0Z" fill="#98a0ad"/></svg>